<?xml version="1.0" encoding="UTF-8" standalone="no"?>
<!-- Created with Inkscape (http://www.inkscape.org/) -->

<svg
   width="565.89136mm"
   height="521.45575mm"
   viewBox="0 0 565.89136 521.45575"
   version="1.1"
   id="svg1"
   xmlns="http://www.w3.org/2000/svg"
   xmlns:svg="http://www.w3.org/2000/svg">
  <defs
     id="defs1" />
  <g
     id="layer1"
     transform="translate(21.960425,147.37292)">
    <path
       class="cls-1"
       d="m 263.05527,-16.832162 c 23.36722,-51.480145 63.24656,-102.474268 120.95548,-115.741188 55.43157,-13.18423 120.59236,10.5934 149.06608,60.942856 24.10688,51.872533 4.26753,110.783247 -22.5768,157.37064 -26.18191,44.009724 -60.30156,82.606354 -90.44148,123.883914 -39.79926,50.21842 -79.00661,100.96815 -119.6294,150.47442 -13.03456,33.09635 -34.5062,-0.97997 -45.62541,-15.98489 C 214.39643,302.45685 192.38044,270.42782 137.11285,233.16121 111.08661,215.61187 75.659695,188.00512 55.202694,165.97829 26.787106,135.38213 41.735693,157.02484 8.0791592,107.79682 -11.698074,78.86946 -13.471656,47.620589 -17.198709,13.90206 c 1.0237,-32.784039 17.66003788,-49.991523 43.142164,-68.26519 42.851705,-30.729695 60.458641,-23.503781 101.778575,-24.836932 26.7157,-1.265153 57.59291,4.608685 71.79546,29.150765 13.33727,15.878931 48.19293,19.110687 63.53778,33.217135 z"
       id="path1"
       style="fill:#ff72ff;stroke-width:10.1269" />
    <path
       class="cls-1"
       d="M 270.60785,-44.672173 A 256.64916,256.64916 0 0 0 194.30105,-124.15404 144.78187,144.78187 0 0 0 80.740436,-143.09845 149.33277,149.33277 0 0 0 2.8460449,-94.943659 83.715253,83.715253 0 0 0 -18.320886,-56.631493 c -12.276825,49.3189681 7.937606,100.119629 39.158835,141.818491 21.801958,33.761272 54.716574,61.489962 83.821121,91.229502 47.94311,48.68397 99.37879,95.25124 148.16855,143.08852 13.33518,13.65271 30.05705,24.23617 40.64051,39.47636 a 11.641818,11.641818 0 0 0 19.4736,0.74086 c 7.19676,-6.56177 6.66757,-15.55771 12.27682,-22.75449 34.81963,-49.84813 75.56597,-97.15626 109.22145,-147.42773 15.66353,-23.70696 28.25788,-48.47233 42.33389,-72.8143 5.18588,-9.20759 10.58347,-18.309394 15.8752,-27.622833 a 359.83799,359.83799 0 0 0 14.07601,-41.804701 124.56745,124.56745 0 0 0 3.70422,-44.1330735 97.897102,97.897102 0 0 0 -5.18588,-31.1154015 122.97993,122.97993 0 0 0 -65.61756,-71.120923 147.11024,147.11024 0 0 0 -122.02743,8.043437 107.31639,107.31639 0 0 0 -39.3705,35.983801 72.285105,72.285105 0 0 1 -7.6201,10.371801 z"
       id="path1-5"
       style="fill:#3a865b;fill-opacity:1;stroke-width:10.5835" />
  </g>
</svg>
