<svg id="Layer_1" data-name="Layer 1" xmlns="http://www.w3.org/2000/svg" viewBox="0 0 921.97 597.94"><defs><style>.cls-1{fill:#ff74ff;}</style></defs><path class="cls-1" d="M498.12,296.12c58.24,3.52,114.6-5.24,167.09-22.58,48.55-17.54,87.12-56.89,92.12-105.94,5.95-39.56-9.2-81.15-33.12-117C713.12,30.43,695,14.44,675.69.25,604.78-48.62,513.73-64.16,431-61.69c-65.17-1.57-126.94,13-189.77,21.89C138.26-24.66,37-4.2-65.43,12.64-93.68,17-120.35,27-149.78,26.77c-26.64-.22-7.46,25.05,2,35.57,34.61,38.4,64.45,76.89,95,117.78C-22.91,220,6.79,260.25,39.44,298.52c28.71,33.65,60.76,64.9,91.51,97.08,11.68,12.23,23,24.78,34.85,36.84,17.94,16.41,38.52,30.54,58.1,45.29,20.17,15.67,43.85,25.66,67.3,35.88,16.76,7.41,33.94,13.81,52,17.2,51,9.1,106.8,8,148-17.38,43.21-30.86,68.53-81.1,54.25-134.33-6-23.92-16.38-48.05-34.91-67.61C505.82,306.91,502.31,301.41,498.12,296.12Z" transform="translate(163.35 61.94)"/></svg>