<?xml version="1.0" encoding="UTF-8" standalone="no"?>
<!-- Created with Inkscape (http://www.inkscape.org/) -->

<svg
   version="1.1"
   id="svg1"
   viewBox="0 0 592.00793 336.91699"
   width="110%"
   height="100%"
   xmlns="http://www.w3.org/2000/svg"
   preserveAspectRatio="xMidYMid meet"
   xmlns:svg="http://www.w3.org/2000/svg">
  <defs
     id="defs1" />
  <g
     id="g1"
     transform="translate(-107.69775,-93.066407)">
    <path
       id="path5"
       style="stroke-width:0.904385"
       d="M 165.08008,93.066406 C 145.72787,107.26957 113.11495,81.222671 108.31445,108.13281 h -0.18164 l -0.21714,68.37879 c -0.15272,0.51439 -0.08,7.05506 -0.21645,7.57238 v 36.04493 c 0.13978,0.81616 -0.0411,1.41524 0.10789,2.23012 l -0.0543,3.03678 c -0.14711,0.0923 0.35975,8.4362 0.21782,8.52849 l -0.27142,21.10695 c -0.0106,0.82233 0.0372,1.64517 0.12146,2.46063 l 0.0136,2.68551 c -0.0791,0.7272 -0.13503,1.64936 -0.13503,2.42222 v 9.85742 c 0,0.28779 0.16136,2.24019 0.16217,2.53171 l 0.27142,97.13144 -0.0434,15.84825 c -0.01,3.65826 1.50619,11.99066 2.11667,17.23935 2.25185,19.36079 25.11681,16.73804 56.34275,13.39574 24.27351,-2.59814 41.01704,15.61403 67.10937,10.40429 22.81267,-4.55491 47.26537,-5.2111 69.77344,-11.89843 21.00315,-6.58898 36.23996,-1.31856 60.06055,-3.91993 24.22895,-2.64597 49.88392,-2.78397 72.43945,9.81446 17.2594,8.56891 32.75457,-1.67397 51.61719,-2.16211 28.38128,-0.73447 30.9058,-10.25472 59.12109,-1.11133 17.65001,5.05808 26.07627,17.25271 53.74805,4.88867 20.01135,-8.94128 57.93382,1.58287 80.93555,3.66992 15.73376,1.42759 19.04148,-1.63731 18.24218,-8.95898 l -0.30708,-50.12427 0.21343,-6.42941 0.0576,-114.92481 0.0361,-5.52737 V 141.86914 l -0.19894,-6.14152 c -0.68886,-17.82102 -8.91394,-34.01946 -34.09207,-35.45028 -23.95672,1.66803 -44.98076,-5.654998 -69.02735,-2.041012 -27.23128,4.092612 -44.41225,-3.93107 -67.84179,2.623052 -18.24482,7.31304 -35.9854,-4.60365 -52.49414,-1.250005 -20.46335,4.156995 -44.74395,4.451285 -65.95118,6.859375 -28.58412,-0.29116 -57.57295,1.1997 -84.33398,4.94336 -24.22643,-3.13317 -46.99127,-0.45875 -72.13086,-2.40234 -25.05111,-1.93675 -50.0989,-6.16908 -75.41992,-13.744145 -4.48892,-1.342911 -8.37984,-2.199219 -13.02539,-2.199219 z" />
  </g>
</svg>
