<?xml version="1.0" encoding="UTF-8" standalone="no"?>
<!-- Created with Inkscape (http://www.inkscape.org/) -->

<svg
   width="13.030567mm"
   height="14.01699mm"
   viewBox="0 0 13.030567 14.01699"
   version="1.1"
   id="svg1"
   xmlns="http://www.w3.org/2000/svg"
   xmlns:svg="http://www.w3.org/2000/svg">
  <defs
     id="defs1" />
  <g
     id="layer1"
     transform="translate(-246.59166,-218.54583)">
    <path
       class="cls-1"
       d="m 252.36846,220.80778 a 3.7967708,3.7967708 0 0 0 -1.00725,-1.53766 2.5743958,2.5743958 0 0 0 -3.47478,-0.0966 c -1.3239,1.15201 -1.51431,2.59599 -1.09827,4.19692 a 9.4720832,9.4720832 0 0 0 1.9394,3.61281 11.284479,11.284479 0 0 1 2.10624,4.08781 c 0.12323,0.43246 0.26743,0.85247 0.41151,1.28857 0.0821,0.23727 0.20324,0.26648 0.35513,0.0889 1.00951,-1.16663 2.27659,-1.94716 3.55807,-2.73325 a 12.54125,12.54125 0 0 0 2.7316,-2.06108 6.2970833,6.2970833 0 0 0 1.477,-2.55147 5.6858958,5.6858958 0 0 0 -0.0812,-3.61058 4.4502916,4.4502916 0 0 0 -0.71451,-1.19914 3.9184791,3.9184791 0 0 0 -1.89112,-1.2596 3.5136666,3.5136666 0 0 0 -2.30145,0.10568 3.4025416,3.4025416 0 0 0 -1.51896,1.00782 c -0.18693,0.20908 -0.32831,0.43418 -0.49144,0.66085 z"
       id="path1"
       style="fill:#ff65ff;stroke-width:0.264583" />
  </g>
</svg>
