<?xml version="1.0" encoding="UTF-8" standalone="no"?>
<!-- Created with Inkscape (http://www.inkscape.org/) -->

<svg
   width="14.309834mm"
   height="13.420362mm"
   viewBox="0 0 14.309834 13.420362"
   version="1.1"
   id="svg1"
   xmlns="http://www.w3.org/2000/svg"
   xmlns:svg="http://www.w3.org/2000/svg">
  <defs
     id="defs1" />
  <g
     id="layer1"
     transform="translate(-174.36041,-109.53751)">
    <path
       style="baseline-shift:baseline;display:inline;overflow:visible;vector-effect:none;fill:#ff00ff;stroke-width:0.264583;enable-background:accumulate;stop-color:#000000"
       d="m 178.21485,109.54762 c -0.73306,-0.0577 -1.45333,0.13354 -2.06137,0.51315 -1.62112,1.01208 -2.45246,3.3792 -1.156,5.84408 2.6e-4,5.3e-4 2.5e-4,0.001 5.3e-4,0.002 0.41319,0.80249 0.95174,1.53685 1.39578,2.23242 0.4983,0.79658 1.02087,1.58129 1.58905,2.33836 0.42907,0.59586 0.91818,1.14608 1.46037,1.64125 l 0.006,0.005 0.006,0.006 c 0.10736,0.0924 0.35318,0.31114 0.63975,0.50023 0.14329,0.0945 0.29732,0.1847 0.47801,0.25012 0.18069,0.0654 0.40865,0.12242 0.67903,0.0269 1.14866,-0.39769 2.08238,-1.1738 2.89078,-1.90944 0.89257,-0.78952 1.6997,-1.6707 2.40761,-2.6293 l 0.003,-0.004 0.003,-0.004 c 0.93773,-1.31877 1.95144,-2.98681 2.09496,-4.77904 0.0762,-0.75058 -0.079,-1.50675 -0.44649,-2.16576 l -0.005,-0.008 -0.005,-0.008 c -0.39597,-0.65777 -1.08074,-1.34232 -1.96371,-1.52859 h -5.3e-4 c -1.69334,-0.35633 -3.06223,0.58353 -3.9703,1.3255 -0.39247,0.32068 -0.67306,0.56094 -0.86661,0.70176 -0.64844,-1.17471 -1.51375,-1.91381 -2.44533,-2.20813 -0.24342,-0.0769 -0.48945,-0.1234 -0.7338,-0.14263 z m -0.57619,1.09451 c 0.32001,-0.046 0.65204,-0.0219 0.98288,0.0827 0.6617,0.20906 1.34753,0.74743 1.9017,1.82004 l -0.0439,-0.11523 c 0.0646,0.25427 0.24913,0.57744 0.58705,0.66507 0.33792,0.0876 0.56952,-0.0464 0.75396,-0.15813 0.36887,-0.22345 0.70547,-0.55563 1.12654,-0.89969 0.84203,-0.688 1.86196,-1.35622 3.06028,-1.10432 0.36919,0.0779 1.00542,0.61496 1.25264,1.02009 0.25671,0.46434 0.36664,0.9955 0.31212,1.52342 l -5.3e-4,0.006 -5.2e-4,0.007 c -0.11251,1.42743 -1.00154,2.97937 -1.8986,4.24108 -2.1e-4,2.7e-4 -2.6e-4,7.9e-4 -5.3e-4,0.001 -0.66272,0.89624 -1.41783,1.72064 -2.25309,2.45876 l -0.003,0.003 -0.003,0.003 c -0.76454,0.69573 -1.58754,1.34496 -2.4722,1.66346 -0.0536,-0.0197 -0.14906,-0.069 -0.24805,-0.13436 -0.19687,-0.12991 -0.401,-0.30777 -0.52193,-0.41186 -0.48598,-0.44448 -0.92538,-0.93763 -1.31,-1.47226 l -0.003,-0.005 -0.004,-0.004 c -0.54591,-0.72702 -1.05319,-1.48925 -1.54254,-2.27169 l -0.002,-0.002 -0.002,-0.002 c -0.47052,-0.73706 -0.98866,-1.45129 -1.34772,-2.14974 l -10e-4,-0.002 -0.002,-0.003 c -1.08366,-2.05894 -0.36223,-3.71304 0.76997,-4.41988 0.28306,-0.17672 0.59105,-0.29297 0.91106,-0.339 z m 3.26905,11.23342 c -0.005,0.002 -0.009,0.006 -0.0134,0.007 l -0.002,5.3e-4 -0.002,5.3e-4 c 0.0318,-0.0112 0.004,-0.007 0.0176,-0.008 z"
       id="path1" />
  </g>
</svg>
