<?xml version="1.0" encoding="UTF-8" standalone="no"?>
<!-- Created with Inkscape (http://www.inkscape.org/) -->

<svg
   width="14.309842mm"
   height="13.42036mm"
   viewBox="0 0 14.309842 13.420359"
   version="1.1"
   id="svg1"
   xmlns="http://www.w3.org/2000/svg"
   xmlns:svg="http://www.w3.org/2000/svg">
  <defs
     id="defs1" />
  <g
     id="layer1"
     transform="translate(-157.82475,-110.59607)">
    <path
       style="font-variation-settings:normal;baseline-shift:baseline;display:inline;overflow:visible;opacity:1;vector-effect:none;fill:#ff9aff;fill-opacity:1;stroke-width:0.264583;stroke-linecap:butt;stroke-linejoin:miter;stroke-miterlimit:4;stroke-dasharray:none;stroke-dashoffset:0;stroke-opacity:1;-inkscape-stroke:none;enable-background:accumulate;stop-color:#000000;stop-opacity:1"
       d="m 178.21485,109.54762 c -0.73306,-0.0577 -1.45333,0.13354 -2.06137,0.51315 -1.62112,1.01208 -2.45246,3.3792 -1.156,5.84408 2.6e-4,5.3e-4 2.5e-4,0.001 5.3e-4,0.002 0.41319,0.80249 0.95174,1.53685 1.39578,2.23242 0.4983,0.79658 1.02087,1.58129 1.58905,2.33836 0.42907,0.59586 0.91818,1.14608 1.46037,1.64125 l 0.006,0.005 0.006,0.006 c 0.10736,0.0924 0.35318,0.31114 0.63975,0.50023 0.14329,0.0945 0.29732,0.1847 0.47801,0.25012 0.18069,0.0654 0.40865,0.12242 0.67903,0.0269 1.14866,-0.39769 2.08238,-1.1738 2.89078,-1.90944 0.89257,-0.78952 1.6997,-1.6707 2.40761,-2.6293 l 0.003,-0.004 0.003,-0.004 c 0.93773,-1.31877 1.95144,-2.98681 2.09496,-4.77904 0.0762,-0.75058 -0.079,-1.50675 -0.44649,-2.16576 l -0.005,-0.008 -0.005,-0.008 c -0.39597,-0.65777 -1.08074,-1.34232 -1.96371,-1.52859 h -5.3e-4 c -1.69334,-0.35633 -3.06223,0.58353 -3.9703,1.3255 -0.39247,0.32068 -0.67306,0.56094 -0.86661,0.70176 -0.64844,-1.17471 -1.51375,-1.91381 -2.44533,-2.20813 -0.24342,-0.0769 -0.48945,-0.1234 -0.7338,-0.14263 z m -0.57619,1.09451 c 0.32001,-0.046 0.65204,-0.0219 0.98288,0.0827 0.6617,0.20906 1.34753,0.74743 1.9017,1.82004 l -0.0439,-0.11523 c 0.0646,0.25427 0.24913,0.57744 0.58705,0.66507 0.33792,0.0876 0.56952,-0.0464 0.75396,-0.15813 0.36887,-0.22345 0.70547,-0.55563 1.12654,-0.89969 0.84203,-0.688 1.86196,-1.35622 3.06028,-1.10432 0.36919,0.0779 1.00542,0.61496 1.25264,1.02009 0.25671,0.46434 0.36664,0.9955 0.31212,1.52342 l -5.3e-4,0.006 -5.2e-4,0.007 c -0.11251,1.42743 -1.00154,2.97937 -1.8986,4.24108 -2.1e-4,2.7e-4 -2.6e-4,7.9e-4 -5.3e-4,0.001 -0.66272,0.89624 -1.41783,1.72064 -2.25309,2.45876 l -0.003,0.003 -0.003,0.003 c -0.76454,0.69573 -1.58754,1.34496 -2.4722,1.66346 -0.0536,-0.0197 -0.14906,-0.069 -0.24805,-0.13436 -0.19687,-0.12991 -0.401,-0.30777 -0.52193,-0.41186 -0.48598,-0.44448 -0.92538,-0.93763 -1.31,-1.47226 l -0.003,-0.005 -0.004,-0.004 c -0.54591,-0.72702 -1.05319,-1.48925 -1.54254,-2.27169 l -0.002,-0.002 -0.002,-0.002 c -0.47052,-0.73706 -0.98866,-1.45129 -1.34772,-2.14974 l -10e-4,-0.002 -0.002,-0.003 c -1.08366,-2.05894 -0.36223,-3.71304 0.76997,-4.41988 0.28306,-0.17672 0.59105,-0.29297 0.91106,-0.339 z m 3.26905,11.23342 c -0.005,0.002 -0.009,0.006 -0.0134,0.007 l -0.002,5.3e-4 -0.002,5.3e-4 c 0.0318,-0.0112 0.004,-0.007 0.0176,-0.008 z"
       id="path1"
       transform="translate(-16.535661,1.0585743)" />
    <path
       d="m 166.92504,114.66544 c 0.32457,0.0357 0.62966,0.16461 0.88295,0.36243 0.77175,0.60275 1.06824,1.85379 0.27529,3.04023 l -5e-5,5.1e-4 c -0.25363,0.38675 -0.56754,0.73211 -0.83115,1.06272 -0.29668,0.37917 -0.60538,0.75089 -0.93555,1.10617 -0.25063,0.28061 -0.52909,0.53483 -0.83196,0.75805 l -0.004,0.002 -0.003,0.003 c -0.0597,0.0413 -0.19663,0.13994 -0.35281,0.22091 -0.0781,0.0405 -0.16185,0.078 -0.25744,0.10163 -0.0956,0.0236 -0.21432,0.0403 -0.34697,-0.0229 -0.56398,-0.26431 -0.99819,-0.70964 -1.37064,-1.12789 -0.41245,-0.45023 -0.77639,-0.94292 -1.08567,-1.46939 l -0.001,-0.002 -0.001,-0.002 c -0.40706,-0.72235 -0.83407,-1.62665 -0.811,-2.54762 0.001,-0.38657 0.12137,-0.76335 0.34398,-1.07944 l 0.003,-0.004 0.003,-0.004 c 0.23709,-0.31393 0.62286,-0.62568 1.0828,-0.67321 0.88201,-0.0907 1.52936,0.46173 1.95227,0.88856 0.18278,0.18448 0.31277,0.3217 0.40384,0.40384 0.39348,-0.56379 0.87395,-0.89409 1.36445,-0.99406 0.12798,-0.0261 0.25586,-0.0363 0.38123,-0.033 l 5.1e-4,5e-5 c 0.0469,0.001 0.0935,0.004 0.13966,0.01 z"
       id="path4" />
    <path
       d="m 166.92504,114.66544 c 0.32457,0.0357 0.62966,0.16461 0.88295,0.36243 0.77175,0.60275 1.06824,1.85379 0.27529,3.04023 l -5e-5,5.1e-4 c -0.25363,0.38675 -0.56754,0.73211 -0.83115,1.06272 -0.29668,0.37917 -0.60538,0.75089 -0.93555,1.10617 -0.25063,0.28061 -0.52909,0.53483 -0.83196,0.75805 l -0.004,0.002 -0.003,0.003 c -0.0597,0.0413 -0.19663,0.13994 -0.35281,0.22091 -0.0781,0.0405 -0.16185,0.078 -0.25744,0.10163 -0.0956,0.0236 -0.21432,0.0403 -0.34697,-0.0229 -0.56398,-0.26431 -0.99819,-0.70964 -1.37064,-1.12789 -0.41245,-0.45023 -0.77639,-0.94292 -1.08567,-1.46939 l -0.001,-0.002 -0.001,-0.002 c -0.40706,-0.72235 -0.83407,-1.62665 -0.811,-2.54762 0.001,-0.38657 0.12137,-0.76335 0.34398,-1.07944 l 0.003,-0.004 0.003,-0.004 c 0.23709,-0.31393 0.62286,-0.62568 1.0828,-0.67321 0.88201,-0.0907 1.52936,0.46173 1.95227,0.88856 0.18278,0.18448 0.31277,0.3217 0.40384,0.40384 0.39348,-0.56379 0.87395,-0.89409 1.36445,-0.99406 0.12798,-0.0261 0.25586,-0.0363 0.38123,-0.033 l 5.1e-4,5e-5 c 0.0469,0.001 0.0935,0.004 0.13966,0.01 z"
       id="path5" />
    <path
       d="m 166.92504,114.66544 c 0.32457,0.0357 0.62966,0.16461 0.88295,0.36243 0.77175,0.60275 1.06824,1.85379 0.27529,3.04023 l -5e-5,5.1e-4 c -0.25363,0.38675 -0.56754,0.73211 -0.83115,1.06272 -0.29668,0.37917 -0.60538,0.75089 -0.93555,1.10617 -0.25063,0.28061 -0.52909,0.53483 -0.83196,0.75805 l -0.004,0.002 -0.003,0.003 c -0.0597,0.0413 -0.19663,0.13994 -0.35281,0.22091 -0.0781,0.0405 -0.16185,0.078 -0.25744,0.10163 -0.0956,0.0236 -0.21432,0.0403 -0.34697,-0.0229 -0.56398,-0.26431 -0.99819,-0.70964 -1.37064,-1.12789 -0.41245,-0.45023 -0.77639,-0.94292 -1.08567,-1.46939 l -0.001,-0.002 -0.001,-0.002 c -0.40706,-0.72235 -0.83407,-1.62665 -0.811,-2.54762 0.001,-0.38657 0.12137,-0.76335 0.34398,-1.07944 l 0.003,-0.004 0.003,-0.004 c 0.23709,-0.31393 0.62286,-0.62568 1.0828,-0.67321 0.88201,-0.0907 1.52936,0.46173 1.95227,0.88856 0.18278,0.18448 0.31277,0.3217 0.40384,0.40384 0.39348,-0.56379 0.87395,-0.89409 1.36445,-0.99406 0.12798,-0.0261 0.25586,-0.0363 0.38123,-0.033 l 5.1e-4,5e-5 c 0.0469,0.001 0.0935,0.004 0.13966,0.01 z"
       id="path6" />
    <path
       d="m 179.83761,113.38998 c -0.29915,0.001 -0.58948,0.0895 -0.83923,0.24546 -0.76099,0.47509 -1.15118,1.58644 -0.5426,2.7435 v 4.7e-4 c 0.19396,0.37671 0.44681,0.72149 0.65525,1.048 0.23392,0.37393 0.4795,0.74223 0.74621,1.09761 0.20142,0.27971 0.43072,0.53805 0.68523,0.77049 l 0.003,0.002 0.002,0.003 c 0.0504,0.0434 0.16572,0.14636 0.30024,0.23512 0.0673,0.0444 0.13998,0.0866 0.2248,0.11731 0.0848,0.0307 0.1914,0.0572 0.31832,0.0124 0.5392,-0.18668 0.97755,-0.55075 1.35703,-0.89607 0.41899,-0.37061 0.79785,-0.78456 1.13016,-1.23455 l 0.001,-10e-4 0.001,-0.002 c 0.44018,-0.61906 0.91602,-1.40197 0.9834,-2.24327 0.0358,-0.35234 -0.0373,-0.70713 -0.20981,-1.01648 l -0.002,-0.004 -0.002,-0.004 c -0.18587,-0.30877 -0.50742,-0.62983 -0.92191,-0.71727 -0.79488,-0.16727 -1.4377,0.27389 -1.86396,0.62218 -0.18424,0.15054 -0.31584,0.26308 -0.4067,0.32918 -0.30439,-0.55143 -0.71043,-0.89847 -1.14773,-1.03663 -0.1141,-0.0361 -0.22963,-0.0576 -0.34417,-0.0667 h -4.7e-4 c -0.0429,-0.003 -0.0856,-0.005 -0.12815,-0.005 z"
       id="path7"
       style="fill:#3a865b;fill-opacity:1"
       transform="matrix(-1.0855429,-0.11435072,-0.11435072,1.0855429,375.1127,12.140314)" />
    <path
       id="use3"
       style="font-variation-settings:normal;baseline-shift:baseline;display:inline;overflow:visible;vector-effect:none;fill:#3a865b;fill-opacity:1;stroke:none;stroke-width:0.264583;stroke-linecap:butt;stroke-linejoin:miter;stroke-miterlimit:4;stroke-dasharray:none;stroke-dashoffset:0;stroke-opacity:1;-inkscape-stroke:none;enable-background:accumulate;stop-color:#000000"
       d="m 177.94127,109.53785 c -0.63727,0.003 -1.25576,0.19075 -1.7878,0.52291 -1.62112,1.01208 -2.45236,3.37959 -1.1559,5.84447 v 10e-4 c 0.41319,0.80249 0.95185,1.53697 1.39589,2.23254 0.4983,0.79658 1.02146,1.58116 1.58964,2.33823 0.42907,0.59586 0.91755,1.14621 1.45974,1.64138 l 0.007,0.005 0.005,0.006 c 0.10736,0.0924 0.35303,0.3118 0.6396,0.50089 0.14329,0.0945 0.29818,0.18447 0.47887,0.24989 0.18069,0.0654 0.40775,0.12194 0.67813,0.0264 1.14866,-0.39769 2.08246,-1.17325 2.89086,-1.90889 0.89257,-0.78952 1.69967,-1.67135 2.40758,-2.62995 l 0.003,-0.003 0.003,-0.004 c 0.93773,-1.31877 1.95141,-2.9866 2.09493,-4.77883 0.0762,-0.75058 -0.0795,-1.50638 -0.44695,-2.16539 l -0.004,-0.009 -0.005,-0.008 c -0.39597,-0.65777 -1.08097,-1.34173 -1.96394,-1.528 -1.69334,-0.35633 -3.06273,0.58347 -3.9708,1.32544 -0.39247,0.32068 -0.67283,0.56043 -0.86638,0.70125 -0.64844,-1.17471 -1.51343,-1.91401 -2.44501,-2.20833 -0.24306,-0.0768 -0.48917,-0.12273 -0.73317,-0.14201 h -0.001 c -0.0913,-0.007 -0.18234,-0.0104 -0.27301,-0.01 z m -0.0606,1.08325 c 0.2439,-0.008 0.49275,0.025 0.74088,0.10348 0.65239,0.20612 1.32807,0.73293 1.87807,1.77569 0.0787,0.24038 0.25951,0.51474 0.56694,0.59446 0.33792,0.0876 0.56965,-0.0468 0.75409,-0.15852 0.36887,-0.22345 0.70511,-0.55535 1.12618,-0.89941 0.84203,-0.688 1.86207,-1.35606 3.06039,-1.10416 0.36919,0.0779 1.00556,0.61537 1.25278,1.0205 0.25671,0.46434 0.36606,0.99457 0.31154,1.52249 v 0.007 l -0.001,0.007 c -0.11251,1.42743 -1.00082,2.9799 -1.89788,4.24161 h -0.001 v 0.001 c -0.66272,0.89624 -1.4171,1.7201 -2.25236,2.45822 l -0.003,0.003 -0.003,0.003 c -0.76454,0.69573 -1.58787,1.3449 -2.47253,1.6634 -0.0536,-0.0197 -0.1487,-0.069 -0.24769,-0.13431 -0.19687,-0.12991 -0.40088,-0.30873 -0.52181,-0.41282 -0.48598,-0.44448 -0.9254,-0.93722 -1.31002,-1.47185 l -0.003,-0.004 -0.003,-0.004 c -0.54591,-0.72702 -1.05405,-1.48973 -1.5434,-2.27217 l -0.001,-0.001 -0.002,-0.002 c -0.47052,-0.73706 -0.98839,-1.45153 -1.34745,-2.14998 l -0.001,-0.002 -0.002,-0.003 c -1.08366,-2.05894 -0.3627,-3.71311 0.7695,-4.41995 0.28306,-0.17672 0.5915,-0.29193 0.91151,-0.33796 l 0.001,-10e-4 c 0.08,-0.0115 0.16089,-0.0183 0.24219,-0.0209 z"
       transform="matrix(-0.50957424,-0.05367838,-0.05367838,0.50957424,263.47914,68.399371)" />
  </g>
</svg>
