<?xml version="1.0" encoding="UTF-8" standalone="no"?>
<!-- Created with Inkscape (http://www.inkscape.org/) -->

<svg
   width="14.309842mm"
   height="13.420362mm"
   viewBox="0 0 14.309842 13.420362"
   version="1.1"
   id="svg1"
   xmlns="http://www.w3.org/2000/svg"
   xmlns:svg="http://www.w3.org/2000/svg">
  <defs
     id="defs1" />
  <g
     id="layer1"
     transform="translate(-46.302082,-100.0125)">
    <path
       style="font-variation-settings:normal;baseline-shift:baseline;display:inline;overflow:visible;vector-effect:none;fill:#ff9aff;fill-opacity:1;stroke-width:0.264583;stroke-linecap:butt;stroke-linejoin:miter;stroke-miterlimit:4;stroke-dasharray:none;stroke-dashoffset:0;stroke-opacity:1;-inkscape-stroke:none;enable-background:accumulate;stop-color:#000000"
       d="m 50.15652,100.02262 c -0.73306,-0.0577 -1.45333,0.13354 -2.06137,0.51315 -1.62112,1.01208 -2.45246,3.3792 -1.156,5.84408 2.6e-4,5.3e-4 2.5e-4,10e-4 5.3e-4,0.002 0.41319,0.80249 0.95174,1.53685 1.39578,2.23242 0.4983,0.79658 1.02087,1.58129 1.58905,2.33836 0.42907,0.59586 0.91818,1.14608 1.46037,1.64125 l 0.006,0.005 0.006,0.006 c 0.10736,0.0924 0.35318,0.31114 0.63975,0.50023 0.14329,0.0945 0.29732,0.1847 0.47801,0.25012 0.18069,0.0654 0.40865,0.12242 0.67903,0.0269 1.14866,-0.39769 2.08238,-1.1738 2.89078,-1.90944 0.89257,-0.78952 1.6997,-1.6707 2.40761,-2.6293 l 0.003,-0.004 0.003,-0.004 c 0.93773,-1.31877 1.95144,-2.98681 2.09496,-4.77904 0.0762,-0.75058 -0.079,-1.50675 -0.44649,-2.16576 l -0.005,-0.008 -0.005,-0.008 c -0.39597,-0.65777 -1.08074,-1.34232 -1.96371,-1.52859 h -5.3e-4 c -1.69334,-0.356326 -3.06223,0.58353 -3.9703,1.3255 -0.39247,0.32068 -0.67306,0.56094 -0.86661,0.70176 -0.64844,-1.17471 -1.51375,-1.91381 -2.44533,-2.20813 -0.24342,-0.0769 -0.48945,-0.1234 -0.7338,-0.14263 z m -0.57619,1.09451 c 0.32001,-0.046 0.65204,-0.0219 0.98288,0.0827 0.6617,0.20906 1.34753,0.74743 1.9017,1.82004 l -0.0439,-0.11523 c 0.0646,0.25427 0.24913,0.57744 0.58705,0.66507 0.33792,0.0876 0.56952,-0.0464 0.75396,-0.15813 0.36887,-0.22345 0.70547,-0.55563 1.12654,-0.89969 0.84203,-0.688 1.86196,-1.35622 3.06028,-1.10432 0.36919,0.0779 1.00542,0.61496 1.25264,1.02009 0.25671,0.46434 0.36664,0.9955 0.31212,1.52342 l -5.3e-4,0.006 -5.2e-4,0.007 c -0.11251,1.42743 -1.00154,2.97937 -1.8986,4.24108 -2.1e-4,2.7e-4 -2.6e-4,7.9e-4 -5.3e-4,10e-4 -0.66272,0.89624 -1.41783,1.72064 -2.25309,2.45876 l -0.003,0.003 -0.003,0.003 c -0.76454,0.69573 -1.58754,1.34496 -2.4722,1.66346 -0.0536,-0.0197 -0.14906,-0.069 -0.24805,-0.13436 -0.19687,-0.12991 -0.401,-0.30777 -0.52193,-0.41186 -0.48598,-0.44448 -0.92538,-0.93763 -1.31,-1.47226 l -0.003,-0.005 -0.004,-0.004 c -0.54591,-0.72702 -1.05319,-1.48925 -1.54254,-2.27169 l -0.002,-0.002 -0.002,-0.002 c -0.47052,-0.73706 -0.98866,-1.45129 -1.34772,-2.14974 l -10e-4,-0.002 -0.002,-0.003 c -1.08366,-2.05894 -0.36223,-3.71304 0.76997,-4.41988 0.28306,-0.17672 0.59105,-0.29297 0.91106,-0.339 z m 3.26905,11.23342 c -0.005,0.002 -0.009,0.006 -0.0134,0.007 l -0.002,5.3e-4 -0.002,5.3e-4 c 0.0318,-0.0112 0.004,-0.007 0.0176,-0.008 z"
       id="path1" />
    <path
       d="m 55.40237,104.08187 c 0.32457,0.0357 0.62966,0.16461 0.88295,0.36243 0.77175,0.60275 1.06824,1.85379 0.27529,3.04023 l -5e-5,5.1e-4 c -0.25363,0.38675 -0.56754,0.73211 -0.83115,1.06272 -0.29668,0.37917 -0.60538,0.75089 -0.93555,1.10617 -0.25063,0.28061 -0.52909,0.53483 -0.83196,0.75805 l -0.004,0.002 -0.003,0.003 c -0.0597,0.0413 -0.19663,0.13994 -0.35281,0.22091 -0.0781,0.0405 -0.16185,0.078 -0.25744,0.10163 -0.0956,0.0236 -0.21432,0.0403 -0.34697,-0.0229 -0.56398,-0.26431 -0.99819,-0.70964 -1.37064,-1.12789 -0.41245,-0.45023 -0.77639,-0.94292 -1.08567,-1.46939 l -10e-4,-0.002 -0.001,-0.002 c -0.40706,-0.72235 -0.83407,-1.62665 -0.811,-2.54762 0.001,-0.38657 0.12137,-0.76335 0.34398,-1.07944 l 0.003,-0.004 0.003,-0.004 c 0.23709,-0.31393 0.62286,-0.62568 1.0828,-0.67321 0.88201,-0.0907 1.52936,0.46173 1.95227,0.88856 0.18278,0.18448 0.31277,0.3217 0.40384,0.40384 0.39348,-0.56379 0.87395,-0.89409 1.36445,-0.99406 0.12798,-0.0261 0.25586,-0.0363 0.38123,-0.033 l 5.1e-4,5e-5 c 0.0469,10e-4 0.0935,0.004 0.13966,0.01 z"
       id="path4" />
    <path
       d="m 55.40237,104.08187 c 0.32457,0.0357 0.62966,0.16461 0.88295,0.36243 0.77175,0.60275 1.06824,1.85379 0.27529,3.04023 l -5e-5,5.1e-4 c -0.25363,0.38675 -0.56754,0.73211 -0.83115,1.06272 -0.29668,0.37917 -0.60538,0.75089 -0.93555,1.10617 -0.25063,0.28061 -0.52909,0.53483 -0.83196,0.75805 l -0.004,0.002 -0.003,0.003 c -0.0597,0.0413 -0.19663,0.13994 -0.35281,0.22091 -0.0781,0.0405 -0.16185,0.078 -0.25744,0.10163 -0.0956,0.0236 -0.21432,0.0403 -0.34697,-0.0229 -0.56398,-0.26431 -0.99819,-0.70964 -1.37064,-1.12789 -0.41245,-0.45023 -0.77639,-0.94292 -1.08567,-1.46939 l -10e-4,-0.002 -0.001,-0.002 c -0.40706,-0.72235 -0.83407,-1.62665 -0.811,-2.54762 0.001,-0.38657 0.12137,-0.76335 0.34398,-1.07944 l 0.003,-0.004 0.003,-0.004 c 0.23709,-0.31393 0.62286,-0.62568 1.0828,-0.67321 0.88201,-0.0907 1.52936,0.46173 1.95227,0.88856 0.18278,0.18448 0.31277,0.3217 0.40384,0.40384 0.39348,-0.56379 0.87395,-0.89409 1.36445,-0.99406 0.12798,-0.0261 0.25586,-0.0363 0.38123,-0.033 l 5.1e-4,5e-5 c 0.0469,10e-4 0.0935,0.004 0.13966,0.01 z"
       id="path5" />
    <path
       d="m 55.40237,104.08187 c 0.32457,0.0357 0.62966,0.16461 0.88295,0.36243 0.77175,0.60275 1.06824,1.85379 0.27529,3.04023 l -5e-5,5.1e-4 c -0.25363,0.38675 -0.56754,0.73211 -0.83115,1.06272 -0.29668,0.37917 -0.60538,0.75089 -0.93555,1.10617 -0.25063,0.28061 -0.52909,0.53483 -0.83196,0.75805 l -0.004,0.002 -0.003,0.003 c -0.0597,0.0413 -0.19663,0.13994 -0.35281,0.22091 -0.0781,0.0405 -0.16185,0.078 -0.25744,0.10163 -0.0956,0.0236 -0.21432,0.0403 -0.34697,-0.0229 -0.56398,-0.26431 -0.99819,-0.70964 -1.37064,-1.12789 -0.41245,-0.45023 -0.77639,-0.94292 -1.08567,-1.46939 l -10e-4,-0.002 -0.001,-0.002 c -0.40706,-0.72235 -0.83407,-1.62665 -0.811,-2.54762 0.001,-0.38657 0.12137,-0.76335 0.34398,-1.07944 l 0.003,-0.004 0.003,-0.004 c 0.23709,-0.31393 0.62286,-0.62568 1.0828,-0.67321 0.88201,-0.0907 1.52936,0.46173 1.95227,0.88856 0.18278,0.18448 0.31277,0.3217 0.40384,0.40384 0.39348,-0.56379 0.87395,-0.89409 1.36445,-0.99406 0.12798,-0.0261 0.25586,-0.0363 0.38123,-0.033 l 5.1e-4,5e-5 c 0.0469,10e-4 0.0935,0.004 0.13966,0.01 z"
       id="path6" />
    <path
       d="m 55.402363,104.08187 c 0.324626,0.0353 0.629672,0.16457 0.882952,0.36243 0.771761,0.60275 1.068245,1.85378 0.275294,3.04023 l -5.3e-5,5.1e-4 c -0.253629,0.38675 -0.567535,0.73211 -0.831142,1.06272 -0.296689,0.37917 -0.605392,0.75089 -0.935555,1.10617 -0.250635,0.28061 -0.529092,0.53483 -0.831953,0.75805 l -0.0035,0.002 -0.0025,0.003 c -0.05968,0.0413 -0.196633,0.13993 -0.35281,0.2209 -0.07813,0.0405 -0.161857,0.078 -0.257444,0.10164 -0.09557,0.0236 -0.214314,0.0402 -0.346968,-0.0229 -0.563978,-0.2643 -0.998194,-0.70964 -1.370648,-1.1279 -0.412453,-0.45022 -0.776386,-0.94291 -1.085666,-1.46939 l -9.71e-4,-0.001 -8.57e-4,-0.002 c -0.407044,-0.72236 -0.834063,-1.62665 -0.811003,-2.54762 0.0014,-0.38658 0.121351,-0.76336 0.343993,-1.07944 l 0.0026,-0.004 0.0026,-0.004 c 0.237078,-0.31393 0.622847,-0.62568 1.082793,-0.67321 0.882004,-0.0907 1.529365,0.46172 1.952262,0.88855 0.182786,0.18449 0.312774,0.3217 0.403848,0.40385 0.393485,-0.5638 0.873943,-0.89409 1.36445,-0.99407 0.127988,-0.0261 0.255859,-0.0363 0.381238,-0.0331 l 5.1e-4,6e-5 c 0.04691,0.002 0.09349,0.004 0.139684,0.009 z"
       id="path7"
       style="fill:#3a865b;fill-opacity:1;stroke-width:1.09155" />
    <path
       id="use3"
       style="font-variation-settings:normal;baseline-shift:baseline;display:inline;overflow:visible;vector-effect:none;fill:#3a865b;fill-opacity:1;stroke:none;stroke-width:0.135571;stroke-linecap:butt;stroke-linejoin:miter;stroke-miterlimit:4;stroke-dasharray:none;stroke-dashoffset:0;stroke-opacity:1;-inkscape-stroke:none;enable-background:accumulate;stop-color:#000000"
       d="m 55.402368,104.08187 c 0.324576,0.0357 0.629664,0.16461 0.882948,0.36243 0.771754,0.60275 1.068249,1.85379 0.275295,3.04023 l -5.3e-5,5.1e-4 c -0.253628,0.38675 -0.567541,0.73211 -0.831149,1.06272 -0.29668,0.37917 -0.605384,0.75089 -0.935552,1.10617 -0.250628,0.28061 -0.529087,0.53483 -0.831953,0.75805 l -0.0038,0.002 -0.0029,0.003 c -0.05967,0.0413 -0.196632,0.13994 -0.352811,0.22091 -0.07809,0.0405 -0.161847,0.078 -0.257433,0.10163 -0.09559,0.0236 -0.214325,0.0403 -0.346975,-0.0229 -0.56398,-0.26431 -0.99819,-0.70964 -1.370641,-1.12789 -0.412451,-0.45023 -0.776393,-0.94292 -1.08567,-1.46939 l -0.0014,-0.002 -0.0013,-0.002 c -0.407054,-0.72235 -0.834073,-1.62665 -0.811003,-2.54762 0.0015,-0.38657 0.121371,-0.76335 0.343989,-1.07944 l 0.0025,-0.004 0.003,-0.004 c 0.237084,-0.31393 0.622856,-0.62568 1.082793,-0.67321 0.88201,-0.0907 1.529369,0.46173 1.95227,0.88856 0.182779,0.18448 0.312774,0.3217 0.403843,0.40384 0.393485,-0.56379 0.873946,-0.89409 1.364454,-0.99406 0.12798,-0.0261 0.255856,-0.0363 0.381227,-0.033 l 5.1e-4,5e-5 c 0.0469,10e-4 0.09347,0.004 0.139656,0.01 z m -0.02727,0.55525 c -0.123855,-0.0172 -0.252434,-0.0137 -0.383088,0.013 -0.343505,0.07 -0.716092,0.30219 -1.052332,0.80403 -0.05301,0.11827 -0.15987,0.24837 -0.320808,0.27249 -0.176897,0.0265 -0.287766,-0.0544 -0.375755,-0.12125 -0.175973,-0.13367 -0.329496,-0.32084 -0.525594,-0.51877 -0.392146,-0.39579 -0.876072,-0.79097 -1.500226,-0.72693 -0.192311,0.0199 -0.54544,0.2596 -0.693163,0.45277 -0.155738,0.22284 -0.239922,0.48716 -0.240478,0.7591 l -3.76e-4,0.004 1.34e-4,0.004 c -0.01929,0.73342 0.350036,1.5722 0.739428,2.26329 l 5.1e-4,5e-5 -5.4e-5,5.1e-4 c 0.289596,0.49228 0.629786,0.95259 1.015791,1.37355 l 0.0014,0.002 0.0014,0.002 c 0.352244,0.39557 0.736945,0.77056 1.170649,0.98035 0.02837,-0.007 0.07948,-0.0272 0.133426,-0.0551 0.107293,-0.0556 0.22085,-0.1358 0.28806,-0.18235 0.271502,-0.20041 0.521869,-0.42791 0.746559,-0.6797 l 0.0017,-0.002 0.0017,-0.002 c 0.317207,-0.34117 0.617083,-0.70255 0.908443,-1.07499 l 5.64e-4,-4.6e-4 0.0011,-9.1e-4 c 0.279329,-0.35033 0.581574,-0.68661 0.802033,-1.02325 l 6.17e-4,-9.6e-4 0.0012,-0.001 c 0.662726,-0.99102 0.384137,-1.87264 -0.154861,-2.2936 -0.134754,-0.10525 -0.285743,-0.18051 -0.446341,-0.22114 l -4.56e-4,-5.7e-4 c -0.04015,-0.0102 -0.081,-0.018 -0.122292,-0.0237 z" />
  </g>
</svg>
