<?xml version="1.0" encoding="UTF-8" standalone="no"?>
<!-- Created with Inkscape (http://www.inkscape.org/) -->

<svg
   width="13.389638mm"
   height="13.996077mm"
   viewBox="0 0 13.389638 13.996077"
   version="1.1"
   id="svg1"
   xmlns="http://www.w3.org/2000/svg"
   xmlns:svg="http://www.w3.org/2000/svg">
  <defs
     id="defs1" />
  <g
     id="layer1"
     transform="translate(-216.42916,-142.08122)">
    <path
       class="cls-1"
       d="m 222.57784,144.29978 c -0.28091,-0.55493 -0.69385,-1.03235 -1.20251,-1.39028 -1.07308,-0.79186 -3.21708,-0.27798 -4.10069,0.7209 -1.15919,1.31761 -0.97489,2.98028 -0.34993,4.51178 0.54841,1.26986 1.527,2.72864 2.56071,3.64773 1.12641,1.06342 2.32568,1.46157 2.9343,2.88609 0.17956,0.41226 0.37826,0.8094 0.57898,1.22251 0.11289,0.22427 0.23683,0.23713 0.36378,0.0409 0.84565,-1.29036 1.98232,-2.92161 3.14806,-3.8709 0.91733,-0.6869 1.59924,-1.22826 2.29676,-2.13754 0.58537,-0.80652 0.76866,-1.38683 0.92278,-2.3714 0.20604,-1.21852 0.06,-2.09364 -0.50937,-3.19046 -0.22981,-0.4079 -0.73651,-0.94039 -1.08138,-1.25704 -0.56711,-0.52678 -0.81037,-0.6245 -1.76485,-0.93836 -0.78032,-0.12188 -1.33755,-0.18252 -2.02564,0.20517 -0.55791,0.268 -1.03215,0.6831 -1.37167,1.20061 -0.1575,0.23205 -0.26774,0.47393 -0.39933,0.72025 z"
       id="path1"
       style="fill:#ff65ff;stroke-width:0.264583" />
  </g>
</svg>
