<svg id="Layer_1" data-name="Layer 1" xmlns="http://www.w3.org/2000/svg" viewBox="0 0 50 53.89"><defs><style>.cls-1{fill:#ff65ff;}</style></defs><path class="cls-1" d="M283.72,216a14.35,14.35,0,0,1,4.75-5.07,9.73,9.73,0,0,1,13,1.9c4.18,5.15,3.95,10.65,1.36,16.34a35.8,35.8,0,0,1-9.57,12.19,42.65,42.65,0,0,0-10.5,13.85c-.74,1.53-1.55,3-2.37,4.53-.46.83-.93.86-1.38.1-3-5-7.21-8.73-11.47-12.49a47.4,47.4,0,0,1-8.83-9.45,23.8,23.8,0,0,1-3.84-10.46,21.49,21.49,0,0,1,2.65-13.39,16.82,16.82,0,0,1,3.44-4,14.81,14.81,0,0,1,7.86-3.46,13.28,13.28,0,0,1,8.5,1.89,12.86,12.86,0,0,1,5,4.74C282.88,214.12,283.26,215.05,283.72,216Z" transform="translate(-254.74 -206.51)"/></svg>
