<svg xmlns="http://www.w3.org/2000/svg" viewBox="0 0 600 287.96"><defs><style>.cls-1{fill:#3a865b;}.cls-2{fill:#ff9aff;}.cls-3{fill:none;}</style></defs><g id="Layer_4" data-name="Layer 4"><path class="cls-1" d="M-27.22,139.71A12,12,0,0,1-19.46,127c4.73-1.59,9.53-3,14.34-4.32,9.9-2.75,19.84-5.37,29.75-8.11,15.53-4.3,31.05-8.68,46.58-13C81.66,98.66,92.14,95.84,102.6,93c6.82-1.86,15.27,2.71,17.31,9.52,1.63,5.45,3,11,4.58,16.42q4.14,14.83,8.29,29.67c2.14,7.63,4.34,15.23,6.43,22.87,1.37,5-1.56,11.31-6.32,13.77a24.28,24.28,0,0,1-4.63,1.94c-6.67,1.83-13.4,3.48-20.07,5.32-12,3.31-24,6.74-36.09,10-10.58,2.9-21.21,5.64-31.79,8.55-7.51,2.08-14.93,4.47-22.47,6.44a75.35,75.35,0,0,1-13,2.34c-5.51.44-11.41-4.26-12.95-9.92-1.2-4.42-2.45-8.83-3.67-13.24q-4.08-14.62-8.15-29.26C-21.5,162-23.11,156.51-24.56,151-25.59,147.14-26.41,143.21-27.22,139.71Z" transform="translate(61.04 -58.81)"/></g><g id="photo_2025-04-13_04-22-43_Image" data-name="photo_2025-04-13_04-22-43 Image"><path class="cls-2" d="M10,202.62a16.08,16.08,0,0,0,3-.67c5.33-1.64,10.81-2.37,16.21-3.76a92.26,92.26,0,0,0,9.15-2.86c2.7-1,6.15-1.91,8.26-3.94,1.75-1.68.18-5.56-.78-7.31-1.15-2.08-3.16-3.14-5.48-2.25a186.17,186.17,0,0,1-20,5.88c-3.44.87-6.87,1.77-10.25,2.82-2.13.66-5.47,1-5.8,3.74a14,14,0,0,0,.84,4.9C5.94,202.11,7.73,202.83,10,202.62Z" transform="translate(61.04 -58.81)"/><path class="cls-2" d="M100.35,178.83a3,3,0,0,0-.94-1.65,11.24,11.24,0,0,1-2.69-6.12c-.2-1.66.85-4.91-1-5.93a4.36,4.36,0,0,0-1.85-.46c-3-.25-6.37.26-8.61,2.42-2.91,2.83-2.91,7.18-1.35,10.7a10.6,10.6,0,0,0,4.38,5,7.69,7.69,0,0,0,6.7.34,15,15,0,0,0,4.78-3.29,1.76,1.76,0,0,0,.47-.62A1,1,0,0,0,100.35,178.83Z" transform="translate(61.04 -58.81)"/><path class="cls-2" d="M101.16,164.82c.2,1.67,1.6,3.06,2.16,4.62.9,2.47.7,5.72,2.28,7.85,2,2.61,6.11,1.8,8.38.09a10.3,10.3,0,0,0,3.93-8.73c-.63-7.56-11.1-12.24-16.23-5.59A2.31,2.31,0,0,0,101.16,164.82Z" transform="translate(61.04 -58.81)"/><path class="cls-2" d="M19.33,144.82c-4.21,0-11.21,1.45-11.35,6.34C11.81,152.55,20.25,150.29,19.33,144.82Z" transform="translate(61.04 -58.81)"/><path class="cls-2" d="M-3.42,155.27c4-.41,13.58-3.08,5.13-5.61-2.67,1-8.1.12-8.87,3.36C-6.95,154.93-4.83,155.36-3.42,155.27Z" transform="translate(61.04 -58.81)"/><path class="cls-2" d="M.12,135.13c-3.45,1.49-12,1.35-10.34,6.82C-6.29,142.88,1.39,141.15.12,135.13Z" transform="translate(61.04 -58.81)"/><path class="cls-2" d="M15.21,169.68a.72.72,0,0,0,0,.52,1.13,1.13,0,0,0,.85.6,5.89,5.89,0,0,0,1.92,0,48.45,48.45,0,0,0,13.4-3.3,28.06,28.06,0,0,0,2.79-1.13c.65-.34,2.53-2,.87-2.22-1.33-.2-3.33.63-4.61.95-3.23.81-6.42,1.8-9.59,2.81-1.4.45-2.88.48-4.31.85a2.49,2.49,0,0,0-1,.43A1.13,1.13,0,0,0,15.21,169.68Z" transform="translate(61.04 -58.81)"/><path class="cls-2" d="M16.15,135.57c-1.42-7.39-8.85-2-13.11-.59C7.66,140,11.86,135.74,16.15,135.57Z" transform="translate(61.04 -58.81)"/><path class="cls-2" d="M61.28,157.68c.38.81,3,.58,3.58.44l10.25-2.21c1.69-.36,3.62-.91,4.29-2.5a.89.89,0,0,0,0-.85c-.23-.31-.7-.27-1.08-.19l-7.28,1.48a56.93,56.93,0,0,0-8.15,2.08,2.81,2.81,0,0,0-1.29.76C61.25,157.12,61.18,157.44,61.28,157.68Z" transform="translate(61.04 -58.81)"/><path class="cls-2" d="M3.62,139.62C.42,142,.42,142,1.38,144.4,2,146,2.74,147.54,4.8,147.34,9.13,146.4,8.77,140.72,3.62,139.62Z" transform="translate(61.04 -58.81)"/><path class="cls-2" d="M113.35,142.41c-1-.36-2.24.19-3.23.51-1.21.39-5.4.84-5.45,2.57,0,1.2,2.1,1,2.84.92a11.46,11.46,0,0,0,4.41-.92C112.73,145.1,115.28,143.08,113.35,142.41Z" transform="translate(61.04 -58.81)"/><path class="cls-2" d="M-2.5,175.74c.25,1.78,4.09.12,5-.08,1.56-.33,3.85-.9,4.62-2.47a.79.79,0,0,0-.05-.91.89.89,0,0,0-.35-.14c-1.55-.32-3.37.38-4.84.83a16.46,16.46,0,0,0-2.85,1.18C-1.45,174.42-2.6,174.94-2.5,175.74Z" transform="translate(61.04 -58.81)"/><path class="cls-2" d="M43.47,162.56c.8.68,5.64-.19,6.2-.33a6.47,6.47,0,0,0,1.92-.73c1-.62,1-1.69-.36-1.69a15.08,15.08,0,0,0-2.68.23,14.9,14.9,0,0,0-4.66,1.69,1.16,1.16,0,0,0-.48.42A.32.32,0,0,0,43.47,162.56Z" transform="translate(61.04 -58.81)"/><path class="cls-2" d="M16.78,138.29c-2.28,1.66-8,.78-6.29,4.72C13.14,142.52,20.42,142.81,16.78,138.29Z" transform="translate(61.04 -58.81)"/><path class="cls-2" d="M87.66,150.24a1.3,1.3,0,0,0,1.1.61,9.89,9.89,0,0,0,3.51-.27c1.31-.39,3-.57,3.77-1.86a5.71,5.71,0,0,0-3.34-.47,17.28,17.28,0,0,0-4.37,1C87.67,149.52,87.5,149.91,87.66,150.24Z" transform="translate(61.04 -58.81)"/><path class="cls-2" d="M-9.33,146c-.71,4.18,7.46,2.17,7.85-.85C-4.1,143.38-6.71,145.35-9.33,146Z" transform="translate(61.04 -58.81)"/><path class="cls-2" d="M437.32,126.19a17,17,0,0,0-8-4.79,8.65,8.65,0,0,0-9.53,4.24c-2.19,3.87-1.5,7.52.58,11.09,2.32,4,4.71,8,7.18,12.16l.78,1.3,12.08-20.08.32-.54C439.45,128.29,438.39,127.24,437.32,126.19Z" transform="translate(61.04 -58.81)"/><path class="cls-2" d="M121.29,76.54c2-.67,2.93,0,3.15,1.48.32,2.2.5,4.41.68,6.62.11,1.32-.59,2.31-1.89,2.08a2.68,2.68,0,0,1-1.75-1.83C121.25,82.17,121.33,79.42,121.29,76.54Z" transform="translate(61.04 -58.81)"/><path class="cls-2" d="M123.65,68.24c-1.9,1-3.18,1.21-3.46-.87s-.36-4.13-.49-6.19c-.07-1.12-.12-2.4,1.47-2.37,1.36,0,1.76,1.09,1.86,2.3C123.22,63.43,123.43,65.76,123.65,68.24Z" transform="translate(61.04 -58.81)"/><path class="cls-2" d="M136.82,72.49c-3.47,1.46-6.64,1.28-9.75,1.33-.41,0-1-.84-1.18-1.4-.11-.38.37-1.33.63-1.35q4.62-.33,9.24-.38C136,70.69,136.29,71.56,136.82,72.49Z" transform="translate(61.04 -58.81)"/><path class="cls-2" d="M108.93,75.63c-.89-1.87-.77-3,.9-3.3,2-.35,4.08-.44,6.12-.67,1.34-.16,2.66-.1,2.81,1.57.14,1.5-1.14,1.63-2.27,1.73Z" transform="translate(61.04 -58.81)"/><path class="cls-2" d="M-37.56,115.46a1.7,1.7,0,0,1,2-2c2.53.21,5.32-1.52,7.77.71A8.94,8.94,0,0,1-37.56,115.46Z" transform="translate(61.04 -58.81)"/><path class="cls-2" d="M-42.53,108.11a20.06,20.06,0,0,1-.23-3.27c0-.56.72-1.56,1-1.52.68.12,1.74.58,1.85,1.08a37.14,37.14,0,0,1,.79,6.47c0,.54-.93,1.46-1.53,1.54s-1.3-.82-1.53-1.45A11.08,11.08,0,0,1-42.53,108.11Z" transform="translate(61.04 -58.81)"/><path class="cls-2" d="M-43.32,117c-2.56.25-5,.59-7.39.66-.59,0-1.21-.81-1.82-1.25.51-.53.94-1.39,1.54-1.52a36.87,36.87,0,0,1,5.35-.65C-44.43,114.16-43.45,114.59-43.32,117Z" transform="translate(61.04 -58.81)"/><path class="cls-2" d="M-41.7,117.74c1.52.56,2.74.72,2.82,1.1a57.58,57.58,0,0,1,1,7.28c0,.31-1.12,1.1-1.49,1a2.48,2.48,0,0,1-1.54-1.51C-41.31,123.29-41.41,121-41.7,117.74Z" transform="translate(61.04 -58.81)"/><path class="cls-2" d="M-48.87,149.27c.33-.6.51-1.41.83-1.46a63.51,63.51,0,0,1,6.43-.83c.31,0,.87.71,1,1.16s-.3,1.28-.58,1.33C-43.71,149.89-46.23,151-48.87,149.27Z" transform="translate(61.04 -58.81)"/><path class="cls-2" d="M-53.35,151l-7.69.15c1-2.69,2.44-3.41,5.74-3.2C-53.74,148.06-53.74,148.06-53.35,151Z" transform="translate(61.04 -58.81)"/><path class="cls-2" d="M-50.6,138.55c.32,2.3.71,4.6.89,6.91,0,.42-.76,1-1.29,1.32-.22.14-1-.12-1.06-.31a30.49,30.49,0,0,1-.72-4.82,14.33,14.33,0,0,1,.59-3.18Z" transform="translate(61.04 -58.81)"/><path class="cls-2" d="M-50.39,151c2.28,2.11,1.21,4.91,1.63,7.31.16.88-1.94,1.49-2.2.68a27.45,27.45,0,0,1-.84-4.82C-52,152.89-52,151.69-50.39,151Z" transform="translate(61.04 -58.81)"/><path class="cls-2" d="M481.58,126.54c-.95-3.94-2.55-7-5.35-9.38-2.05-1.71-4.19-3.14-7.1-2.88-5.17.47-9.09,4.34-8.62,9.51.5,5.49,1.73,10.91,2.74,16.33.56,3,1.37,5.89,2,8.84.34,1.56,1.13,2.6,2.84,2.32,9-1.43,17.89-3.05,26.14-7.06a9,9,0,0,0,3.2-2.56c3.47-4.6,2.48-9.89-2.45-12.95-2.94-1.82-6.12-3-9.71-2.3A27.81,27.81,0,0,1,481.58,126.54Z" transform="translate(61.04 -58.81)"/><path class="cls-1" d="M289.79,224.08c0,2.68-1.51,4.45-3.76,5.58s-4.42.38-6.22-1.28c-3.88-3.58-3.45-9,.87-11.85a4,4,0,0,1,4.6-.18C288.1,218.11,290,220.47,289.79,224.08Zm-4.15,2.38.14,0c.86,0,1.26-1.6,1.2-2.2a18.16,18.16,0,0,0-.57-3.28c-.16-.59-.46-1.37-1.11-1.57a1.14,1.14,0,0,0-1.46,1.08c0,.91.63,1.75.85,2.61.16.62.31,1.25.46,1.88C285.24,225.4,285.14,226.31,285.64,226.46Z" transform="translate(61.04 -58.81)"/><path class="cls-1" d="M329.6,217.86a6.52,6.52,0,0,1-.81,1.83,10.34,10.34,0,0,1-1.33,1.95,3.24,3.24,0,0,1-2.69.68c-3.24-.74-5.61-6.78-3.91-9.63a3.57,3.57,0,0,1,4.85-1.47,8.63,8.63,0,0,1,3,3.3,7.28,7.28,0,0,1,.93,2.57A2.81,2.81,0,0,1,329.6,217.86Zm-3.3,1c.28.11.81.07.94-.2a3.43,3.43,0,0,0-.72-4.06c-.44-.45-1.79-1.53-2.28-.55-.29.61.19,1.29.5,1.78a11.87,11.87,0,0,1,.95,1.84c.14.33.21.88.49,1.12A.35.35,0,0,0,326.3,218.82Z" transform="translate(61.04 -58.81)"/><path class="cls-2" d="M152.23,231.07a10.8,10.8,0,0,1,.55,3.06,38.13,38.13,0,0,0,3.41,19.81c.43.95,1.23,1.86-.12,2.51s-1.84-.39-2.24-1.36a48.36,48.36,0,0,1-3.62-22.17,3.22,3.22,0,0,1,.37-1c.16-.32.39-.61.58-.92Z" transform="translate(61.04 -58.81)"/><path class="cls-2" d="M311.61,292c1.22,1.58.23,2.43-1,3.35a51.86,51.86,0,0,1-16.37,8.34c-.68.21-2,.06-2.22-.33-.57-1.18.43-1.79,1.44-2.14,2.6-.92,5.37-1.5,7.78-2.77C304.78,296.6,308.05,294.25,311.61,292Z" transform="translate(61.04 -58.81)"/><path class="cls-2" d="M163.32,193.83a31.66,31.66,0,0,1,1.65-3c3.76-5.36,9.23-10.86,12.68-12.46-.35,1.28-.31,2.43-.85,2.88a64,64,0,0,0-11.08,12.34c-.31.45-1,.63-1.53.93Z" transform="translate(61.04 -58.81)"/><path class="cls-2" d="M165.21,311.4c-2.18-1.11-3.2-2.27-2.91-3.91.72-4.08,1.63-8.12,2.56-12.16.1-.41.87-.66,1.56-1.14,1.26,3.34-1,5.81-1.18,8.56S165.21,308.14,165.21,311.4Z" transform="translate(61.04 -58.81)"/><path class="cls-2" d="M154.56,209.84a13.66,13.66,0,0,1,.64-2.42c1.32-2.82,2.66-5.64,4.16-8.36.28-.5,1.38-.55,2.1-.81,0,.67.34,1.45.09,2-1.39,3-2.87,6.07-4.45,9-.31.58-1.2.85-1.83,1.26Z" transform="translate(61.04 -58.81)"/><path class="cls-2" d="M248.86,325.9c2.57-5.84,5.44-8.94,9.07-9.8.86,1.19-.05,1.88-.82,2.45a15.68,15.68,0,0,0-5.3,6.75C251.15,326.9,250.2,327.54,248.86,325.9Z" transform="translate(61.04 -58.81)"/><path class="cls-2" d="M324.55,198.64c-1.38-.47-2.46-.5-2.76-1-1.81-3-3.46-6.08-5.09-9.16-.18-.35.09-.92.15-1.43C319.33,188,322,191.85,324.55,198.64Z" transform="translate(61.04 -58.81)"/><path class="cls-2" d="M240.46,340.23c1.32-3.68,4.73-4.88,5.81-7.73,1.7.51,1.75,1.5,1.18,2.44C246,337.36,244.31,339.6,240.46,340.23Z" transform="translate(61.04 -58.81)"/><path class="cls-1" d="M318.77,247.62c1.48-.15,2.67,1.57,3.31,2.74a3.44,3.44,0,0,1-.47,4.12,2.3,2.3,0,0,1-3.31.56,4.29,4.29,0,0,1-2.05-3.64C316.27,250,317,247.8,318.77,247.62Z" transform="translate(61.04 -58.81)"/><path class="cls-1" d="M327.31,245.83c1.43.06,3,2.09,3,3.78,0,1.43-1.32,2.89-2.49,2.86-1.54,0-3.28-2.29-3.17-4.11A2.55,2.55,0,0,1,327.31,245.83Z" transform="translate(61.04 -58.81)"/><path class="cls-1" d="M227.64,145.29a16.21,16.21,0,0,1-2.22,1.75c-2.87,1.39-5.48,3-6.71,6.19-.19.52-1.39.66-2.12,1-.19-.64-.73-1.46-.5-1.9a14.92,14.92,0,0,1,9.38-8C225.89,144.2,226.49,144.76,227.64,145.29Z" transform="translate(61.04 -58.81)"/><path class="cls-3" d="M401.94,143.35c.19.23.65.25,1.33.49,3.15-14.22,6.26-28.32,9.48-42.89-7.11,2.36-13.54,4.43-19.91,6.66-2.75,1-2.82,1.45-1.7,4.15.15.35.3.7.44,1,1.2,2.91,1,3.34-1.9,4.44-1.29.49-2.6.94-4,1.45a11.12,11.12,0,0,0,2.65,8.46C392.64,132.73,397.36,138,401.94,143.35Z" transform="translate(61.04 -58.81)"/><path class="cls-3" d="M428.21,70.13l-3.25-.6A7.09,7.09,0,0,0,428.21,70.13Z" transform="translate(61.04 -58.81)"/><path class="cls-3" d="M416.53,162.17C399.77,146.49,386.1,129.08,373,111c-6.5,10-18.51,64.1-17.56,78.77,9.89-5,19.8-10.12,29.73-15.14S405.42,165.9,416.53,162.17Z" transform="translate(61.04 -58.81)"/><path class="cls-3" d="M410.47,150.24a4.32,4.32,0,0,0,.56,3.15c2.81,2.84,5.85,5.46,9,8.28,3.75-3,5.14-7.27,7.69-10.62.21-.29.42-.58.66-.86l12.08-20.08.32-.54C446,123,465.5,91.29,466.39,87.69c-5.11-2-10.63-2.43-15.92-3.76s-10.49-2.45-16-3.73L432.12,88l-7.31-1.21c-.89,3.27-1.91,6.48-2.63,9.75-1.67,7.6-3.14,15.25-4.8,22.86-1.8,8.22-3.71,16.41-5.57,24.62C411.34,146.06,410.75,148.13,410.47,150.24Z" transform="translate(61.04 -58.81)"/><path class="cls-3" d="M520.61,105.58c-4.26-2.74-4.26-2.74-1.4-7,.49-.72.91-1.49,1.57-2.56L492.67,78.45c-1,1.58-2,3.11-3,4.68s-2.2,1.89-3.75.75c-1.4-1-2.72-2.28-5-2.08-15.68,25-31.4,50-47.46,75.61,3.46,2.89,6.78,5.76,10.23,8.47a3.49,3.49,0,0,0,2.7.52c3.49-1,6.93-2.19,10.35-3.42a234.88,234.88,0,0,0,29.4-12.67c3.45-1.81,7-3.36,10.55-5.05a13.33,13.33,0,0,0,5.75-5.22c6.27-10.19,12.77-20.25,19.18-30.35C523.1,107.48,523,107.12,520.61,105.58Z" transform="translate(61.04 -58.81)"/><path class="cls-3" d="M442.31,168.11c-2.18-1.91-4.47-3.7-6.6-5.66a5,5,0,0,0-5.18-1.19c-8.25,2.28-16.5,4.42-24.57,7.36a256.79,256.79,0,0,0-29,12.7c-5.7,2.91-11.28,6.06-16.89,9.15a30.71,30.71,0,0,0-3.12,2.3c41.19,13,82.53,21.79,124.38,28.39,2.49.4,5,.42,8.28.67-4.1-5.5-7.61-10.38-11.3-15.13A273.5,273.5,0,0,0,442.31,168.11Z" transform="translate(61.04 -58.81)"/><path class="cls-3" d="M477.21,157.52c-7.06,3.28-14.49,5.78-21.75,8.62l-8.13,3.17c17.25,15.79,31.6,33.5,45.19,52.21,5.37-12.58,16.85-64,17.88-80a19.57,19.57,0,0,0-3.14.94C497.24,147.51,487.37,152.8,477.21,157.52Z" transform="translate(61.04 -58.81)"/><path class="cls-1" d="M483.35,62.66l-10.16,15.7-45-8.23a7.09,7.09,0,0,1-3.25-.6,12.36,12.36,0,0,0-2.55-.71c-1.63-.33-2.9.2-2.93,2-.07,4.59-3.41,6.22-6.77,8.08A269.65,269.65,0,0,0,381,99.3a60.93,60.93,0,0,1-6.16,4.33A11.05,11.05,0,0,0,369.9,110c-3.31,9.36-6.36,18.8-8.8,28.45a347.74,347.74,0,0,0-8.74,51.28c-.11,1.11-.42,2.21-.75,3.92,23.18,7.84,46.68,13.83,70.35,19.09s47.36,9.3,71.82,12.77a13.2,13.2,0,0,0,1.47-2.81c3.74-13.83,7.76-27.61,11-41.57,2.57-11.13,4.17-22.48,6.16-33.75.42-2.35.39-4.81,1.06-7.07a28.44,28.44,0,0,1,3.07-6.76c7-11.37,14.16-22.66,21.26-34,.33-.53.61-1.08,1.17-2.06Zm-66,56.7c1.66-7.61,3.13-15.26,4.8-22.86.72-3.27,1.74-6.48,2.63-9.75L432.12,88l2.34-7.76c5.52,1.28,10.79,2.43,16,3.73s10.81,1.8,15.92,3.76c-.89,3.6-20.35,35.26-25.66,41.88l-.32.54-12.08,20.08c-.24.28-.45.57-.66.86-2.55,3.35-3.94,7.57-7.69,10.62-3.1-2.82-6.14-5.44-9-8.28a4.32,4.32,0,0,1-.56-3.15c.28-2.11.87-4.18,1.34-6.26C413.67,135.77,415.58,127.58,417.38,119.36Zm-31.7-.66c1.4-.51,2.71-1,4-1.45,2.92-1.1,3.1-1.53,1.9-4.44-.14-.35-.29-.7-.44-1-1.12-2.7-1.05-3.19,1.7-4.15,6.37-2.23,12.8-4.3,19.91-6.66-3.22,14.57-6.33,28.67-9.48,42.89-.68-.24-1.14-.26-1.33-.49-4.58-5.36-9.3-10.62-13.61-16.19A11.12,11.12,0,0,1,385.68,118.7ZM373,111c13.06,18.11,26.73,35.52,43.49,51.2-11.11,3.73-21.48,7.46-31.32,12.43s-19.84,10.1-29.73,15.14C354.53,175.07,366.54,121,373,111Zm108.3,110.19c-41.85-6.6-83.19-15.41-124.38-28.39a30.71,30.71,0,0,1,3.12-2.3c5.61-3.09,11.19-6.24,16.89-9.15a256.79,256.79,0,0,1,29-12.7c8.07-2.94,16.32-5.08,24.57-7.36a5,5,0,0,1,5.18,1.19c2.13,2,4.42,3.75,6.6,5.66a273.5,273.5,0,0,1,36,38.59c3.69,4.75,7.2,9.63,11.3,15.13C486.38,221.58,483.83,221.56,481.34,221.16Zm11.18.36c-13.59-18.71-27.94-36.42-45.19-52.21l8.13-3.17c7.26-2.84,14.69-5.34,21.75-8.62,10.16-4.72,20-10,30.05-15a19.57,19.57,0,0,1,3.14-.94C509.37,157.54,497.89,208.94,492.52,221.52Zm29.17-111.83c-6.41,10.1-12.91,20.16-19.18,30.35a13.33,13.33,0,0,1-5.75,5.22c-3.51,1.69-7.1,3.24-10.55,5.05A234.88,234.88,0,0,1,456.81,163c-3.42,1.23-6.86,2.4-10.35,3.42a3.49,3.49,0,0,1-2.7-.52c-3.45-2.71-6.77-5.58-10.23-8.47,16.06-25.59,31.78-50.64,47.46-75.61,2.25-.2,3.57,1,5,2.08,1.55,1.14,2.75.91,3.75-.75s2-3.1,3-4.68L520.78,96c-.66,1.07-1.08,1.84-1.57,2.56-2.86,4.28-2.86,4.28,1.4,7C523,107.12,523.1,107.48,521.69,109.69Z" transform="translate(61.04 -58.81)"/><path class="cls-1" d="M462.63,67.12c-1.73-1.83-3.51-3.61-5.22-5.45a3.13,3.13,0,0,0-3.41-1c-1.45.43-2.91.83-4.31,1.38-5.86,2.3-11.75,4.54-17.53,7a11.62,11.62,0,0,1-4,1l45,8.23C469.47,74.4,466.05,70.75,462.63,67.12Z" transform="translate(61.04 -58.81)"/><path d="M462.63,67.12c-1.73-1.83-3.51-3.61-5.22-5.45a3.13,3.13,0,0,0-3.41-1c-1.45.43-2.91.83-4.31,1.38-5.86,2.3-11.75,4.54-17.53,7a11.62,11.62,0,0,1-4,1l45,8.23C469.47,74.4,466.05,70.75,462.63,67.12Z" transform="translate(61.04 -58.81)"/><path d="M417.92,75.24c-.28.48-3.37,17-3.37,17s-41.4,12.76-41.12,12.32,11.71-8.35,15.47-11.13C398.75,86.17,418.32,74.72,417.92,75.24Z" transform="translate(61.04 -58.81)"/></g><g id="Layer_2" data-name="Layer 2"><path class="cls-1" d="M436.43,166.43c-3.67-9.08-26.74,6.46-7.25.1C432.05,164.38,434.83,170.65,436.43,166.43Z" transform="translate(61.04 -58.81)"/><path class="cls-1" d="M412.34,203.74c-12.92-4.82-20.45-1.81-2.88,1.78C410.66,205.82,411.65,205.69,412.34,203.74Z" transform="translate(61.04 -58.81)"/><path class="cls-1" d="M389.31,198.89c.21,2.2,4.07,3,4.92,2.2C395.84,198.7,392.4,197.89,389.31,198.89Z" transform="translate(61.04 -58.81)"/><path class="cls-2" d="M484.19,86.27c.82,4.55,7.7,5.88,9.92-.13,2.76-.51,3.78,4.12,7.35,2C488.68,75.54,496.62,90.79,484.19,86.27Z" transform="translate(61.04 -58.81)"/><path class="cls-2" d="M444.37,145.44c4.63-1.53,12.93-19.37,5.25-9.71C447.72,138.94,443.91,141.33,444.37,145.44Z" transform="translate(61.04 -58.81)"/><path class="cls-2" d="M513.63,116.09c-4-.43-5.93,6.24-7.53,9.52C508.59,125.69,510.63,123.1,513.63,116.09Z" transform="translate(61.04 -58.81)"/><path class="cls-2" d="M502.52,133c3.08-1.82,3.85-3.47,3-6.12C503.47,128.35,502.18,130,502.52,133Z" transform="translate(61.04 -58.81)"/><path class="cls-2" d="M444.48,146.52c-4,1.74-4.61,2.75-4,5.56C442.66,151,443.16,149,444.48,146.52Z" transform="translate(61.04 -58.81)"/><path class="cls-1" d="M506.21,155.94c-6-1.42-3.53,10.74-5.43,14.65C504.74,176,504.9,159.2,506.21,155.94Z" transform="translate(61.04 -58.81)"/><path class="cls-1" d="M498.82,184.07c4-.76,2.71-4,3.85-5.78C502.71,170.56,498.27,180.42,498.82,184.07Z" transform="translate(61.04 -58.81)"/><path class="cls-1" d="M367.58,143.3c1.08-6.4,6-12.38,4.11-18C368.57,129.68,364.89,138.52,367.58,143.3Z" transform="translate(61.04 -58.81)"/><path class="cls-1" d="M367.15,146.07c-3.33,1-2.45,4.61-3,7.17C367.38,156.13,367.9,148.16,367.15,146.07Z" transform="translate(61.04 -58.81)"/><path class="cls-2" d="M422.89,108.21c1.71-4.28,5.3-11.55,3-15C423.34,97.54,422.85,103.11,422.89,108.21Z" transform="translate(61.04 -58.81)"/><path class="cls-2" d="M453,87.65c-2.63-2.35-8.16-4.16-11.4-2.59C443.53,87.32,450.86,89.39,453,87.65Z" transform="translate(61.04 -58.81)"/><path class="cls-2" d="M421.34,116.3c2.25-1,2.59-2,1.85-5.1C420.78,112.31,420.59,112.83,421.34,116.3Z" transform="translate(61.04 -58.81)"/><path class="cls-2" d="M404,107.44c-3.64-1.87-5.87.93-8.47,1.22C390.25,112.31,401.32,110,404,107.44Z" transform="translate(61.04 -58.81)"/></g><g id="Layer_3" data-name="Layer 3"><path class="cls-3" d="M311.28,302.12c-8.64,6.27-18.95,7.93-28.39,11.69l-.18,1.08c2,1,3.87,2.16,5.9,3a26.54,26.54,0,0,0,17.39.8c4.2-1.17,6-3.48,6.19-7.86.09-2.13,0-4.27-.07-6.4A9.79,9.79,0,0,0,311.28,302.12Z" transform="translate(61.04 -58.81)"/><path class="cls-3" d="M191.47,162.64l-2.27-3.7c-6.61,2.52-6.61,2.52-10.71-2.46-2.67,3.1-2.51,5.22.48,6.47l6.89,2.88Z" transform="translate(61.04 -58.81)"/><path class="cls-3" d="M221.39,143c-6,2.6-8.94,7.36-9.31,13.83-.18,3.16.07,3.49,3.13,3.6,4.52.16,9,.4,13.55.48a6.06,6.06,0,0,0,3.16-.72c2.85-1.78,5.58-3.76,8.43-5.71l0,0-.16.07.16-.07c-.25-1-.45-1.81-.69-2.63A13.38,13.38,0,0,0,221.39,143Z" transform="translate(61.04 -58.81)"/><path class="cls-3" d="M309.41,239a23.76,23.76,0,0,0-2.26,10.21c0,6.7,2.51,13.19,6.81,17,4.77,4.24,10.69,4.67,15.78-.29,3.24-3.16,4.47-6.91,5.06-11a23.77,23.77,0,0,0-4.38-18.23C324.28,228.53,313.5,229.85,309.41,239Z" transform="translate(61.04 -58.81)"/><path class="cls-3" d="M311.28,302.12c-8.64,6.27-18.95,7.93-28.39,11.69l-.18,1.08c2,1,3.87,2.16,5.9,3a26.54,26.54,0,0,0,17.39.8c4.2-1.17,6-3.48,6.19-7.86.09-2.13,0-4.27-.07-6.4A9.79,9.79,0,0,0,311.28,302.12Z" transform="translate(61.04 -58.81)"/><path class="cls-3" d="M212.63,159.9l-.21-.17A1.73,1.73,0,0,0,212.63,159.9Z" transform="translate(61.04 -58.81)"/><path class="cls-3" d="M221.39,143c-6,2.6-8.94,7.36-9.31,13.83-.09,1.57-.07,2.43.34,2.93l.21.17a4.82,4.82,0,0,0,2.58.5c4.52.16,9,.4,13.55.48a6.06,6.06,0,0,0,3.16-.72c2.85-1.78,5.58-3.76,8.43-5.71l0,0c-.25-1-.45-1.81-.69-2.63A13.38,13.38,0,0,0,221.39,143Z" transform="translate(61.04 -58.81)"/><path class="cls-3" d="M191.47,162.64l-2.27-3.7c-6.61,2.52-6.61,2.52-10.71-2.46-2.67,3.1-2.51,5.22.48,6.47l6.89,2.88Z" transform="translate(61.04 -58.81)"/><path class="cls-3" d="M309.41,239a23.76,23.76,0,0,0-2.26,10.21c0,6.7,2.51,13.19,6.81,17,4.77,4.24,10.69,4.67,15.78-.29,3.24-3.16,4.47-6.91,5.06-11a23.77,23.77,0,0,0-4.38-18.23C324.28,228.53,313.5,229.85,309.41,239Z" transform="translate(61.04 -58.81)"/><path class="cls-1" d="M212.08,156.8c.37-6.47,3.29-11.23,9.31-13.83a13.38,13.38,0,0,1,18.25,8.8c.24.82.44,1.64.69,2.63l7.11-3-.18,0c-1.44.24-1.84-.49-3.14-3.06-5.83-11.52-21.33-11.35-28.31-4.86A21,21,0,0,0,209.05,157l3.37,2.72C212,159.23,212,158.37,212.08,156.8Z" transform="translate(61.04 -58.81)"/><path class="cls-2" d="M338.84,234.49a77.07,77.07,0,0,0-5-26.24c-2.69-7.17-6.49-13.91-9.63-20.92-2.42-5.39-5-10.73-4.51-17a31.2,31.2,0,0,0-.73-8.27c-.84-4.19-2-8.36-4.56-11.9s-5.7-4.63-9.82-2.7a110.84,110.84,0,0,0-12,6.38,31.43,31.43,0,0,1-16.77,5c-4.9.08-9.2-.55-12.28-4.79a3.06,3.06,0,0,0-.83-.77c-4-2.7-8.28-4.25-13.19-2.58a18.27,18.27,0,0,1-2.1.64l-7.11,3,0,0c-2.85,2-5.58,3.93-8.43,5.71a6.06,6.06,0,0,1-3.16.72c-4.52-.08-9-.32-13.55-.48a4.82,4.82,0,0,1-2.58-.5l.38.3-.38-.3a1.73,1.73,0,0,1-.21-.17L209.05,157h0l-12.36,3.88c-2.94.92-2.94.92-4.32-1.94-1-2.11-2.37-2.72-4.57-2.05-.6.18-1.2.39-1.79.6-3.1,1.12-4.09.63-4.66-2.51a7.58,7.58,0,0,1,.21-2.58c.21-1.19-.19-1.94-1.59-2.33a20.39,20.39,0,0,0-5.23,8c-1.33,3.74.23,6.41,4.1,7.42,1.13.29,2.24.64,3.42,1-.25.85-.26,1.29-.48,1.54a13.88,13.88,0,0,1-1.44,1.2c-4.59,3.93-9.41,7.63-13.72,11.84a75,75,0,0,0-18.72,30.74c-4.08,12.39-5.15,25.12-2.18,38,2.6,11.3,6.36,22.12,13.5,31.35,3.06,4,2.53,7.9,1.92,12.11-.18,1.24-.74,2.41-1,3.64-.68,2.82-1.37,5.63-1.9,8.48-.88,4.72.38,7.37,4.61,9.63,6,3.19,12.47,4.1,19.06,3.79,6.16-.28,9.15-3.31,10.54-9.46.15-.66.45-1.3.79-2.28A40.13,40.13,0,0,1,210,325.41a59.66,59.66,0,0,1,3,9.33,13.92,13.92,0,0,0,7.49,9.43c5.69,2.83,11.55,3.07,17.7,2.05,7.38-1.24,12.37-5,14.94-12.18,2-5.65,5.56-10.21,11.15-12.79,4.89-2.26,9.89-4.31,14.77-6.42,1.29.92,2.29,1.67,3.34,2.37,8,5.35,16.66,6,25.69,3.13a8.24,8.24,0,0,0,5.54-4.81c1.52-4,2.25-8.34.8-12.56-.69-2-.32-3.12,1.2-4.55,12.46-11.75,18.54-26.81,21.73-43.19A101.07,101.07,0,0,0,338.84,234.49ZM179,163c-3-1.25-3.15-3.37-.48-6.47,4.1,5,4.1,5,10.71,2.46l2.27,3.7-5.61,3.19ZM312.19,310.81c-.19,4.38-2,6.69-6.19,7.86a26.54,26.54,0,0,1-17.39-.8c-2-.82-3.93-2-5.9-3l.18-1.08c9.44-3.76,19.75-5.42,28.39-11.69a9.79,9.79,0,0,1,.84,2.29C312.23,306.54,312.28,308.68,312.19,310.81Zm22.61-55.89c-.59,4.13-1.82,7.88-5.06,11-5.09,5-11,4.53-15.78.29-4.3-3.82-6.86-10.31-6.81-17A23.76,23.76,0,0,1,309.41,239c4.09-9.18,14.87-10.5,21-2.34A23.77,23.77,0,0,1,334.8,254.92Zm1.54-15.19c0,.21-.24.4-.68,1.1a31,31,0,0,1-1.81-2.68c-2.39-4.59-5.88-7.91-11-9.05-7-1.56-16.83-.26-21.82,6.8a25.5,25.5,0,0,0-2.94,6.92,63.3,63.3,0,0,0-1.43,6.59c2.31.79,2.59.74,2.84-1.5a26.41,26.41,0,0,1,3.17-10.41,10.78,10.78,0,0,1,8.38-5.37,25.77,25.77,0,0,0-6,20.75,25.19,25.19,0,0,0,11.15,18c-2.64,2.25-5.13-.71-7.36.36-.4,1.71.47,2.39,1.71,2.54,1.62.21,3.39.61,4.88.2,5.05-1.41,10.4-2,15.26-5.41a11.24,11.24,0,0,1-.19,2.31,60.81,60.81,0,0,1-18.46,27.67,39.16,39.16,0,0,1-12.45,7c-6.9,2.39-13.86,4.62-20.71,7.16-5.31,2-10.5,4.27-15.71,6.51a20.64,20.64,0,0,0-10.52,10.4,55.7,55.7,0,0,0-2.42,5.13,13.06,13.06,0,0,1-9.47,8.51,31.38,31.38,0,0,1-17.55-.33,11.37,11.37,0,0,1-8.06-9.15c-2.78-13.67-11.22-23.14-22.92-30-4.34-2.54-8.9-4.69-13.4-7a13,13,0,0,0-2.65-.65c0,2.2,1.39,2.8,2.69,3.44,3.16,1.55,6.31,3.15,9.53,4.58a2.93,2.93,0,0,1,1.9,3.26c-.19,5.18-2.43,7.94-7.52,8.82-6.59,1.14-12.82-.37-18.77-3-3.49-1.58-4.48-3.88-3.71-7.8.64-3.2,1.72-6.32,2.34-9.53a104.5,104.5,0,0,0,1.48-10.42,4.53,4.53,0,0,0-1.2-2.65,76.6,76.6,0,0,1-13.27-26.56c-6-21.52-3.37-42,8.51-61A79.5,79.5,0,0,1,183.31,170a60.7,60.7,0,0,1,18.22-8.11,44.08,44.08,0,0,0,5.19-2c-.88.35-.94,1.92-1,2.7-.16,1.48-.1,1.6,1.39,1.63.9,0,1.8,0,2.69-.09,1.74-.1,3.47-.26,5.21-.27s3.31,0,5,0c.49,0,4.63-.08,4.74.23s.21.58.31.88c-.86.82-1.7,1.66-2.59,2.45a30.6,30.6,0,0,0-2.58,2.21c-.34.37-.26,1.11-.37,1.69.67.05,1.54.39,2,.1a38.75,38.75,0,0,0,3.79-3.12,90.74,90.74,0,0,1,20-13.47,28.65,28.65,0,0,1,4.32-1.59,9.52,9.52,0,0,1,1.92-.61c2-.15.27,1.65-.33,2.15-5.32,4.42-8.93,10.56-11.74,16.88-.95,2.14-1.84,4.45-1.54,6.77a3.77,3.77,0,0,0,1.09,2.38c1.25,1.11,3.32.72,4.55-.41-1.23-1.09-3-1.9-3.32-3.5a4.93,4.93,0,0,1,.52-2.85,51.88,51.88,0,0,1,8.6-14.41c2.92-3.36,7.47-7.46,12-4.5a14.58,14.58,0,0,1,2.91,2.64,61.31,61.31,0,0,1,4.91,6.54c.78,1.16,1.53,2.34,2.27,3.53.42.68,1.71,4.44,2.68,2.57.21-.4.58-1,.41-1.5a28.11,28.11,0,0,0-2-3.61c-.65-1.18-1.26-2.38-2.15-4.07,2.72-.12,4.91-.35,7.09-.28,6.35.21,11.73-2.31,16.93-5.61,3.18-2,6.58-3.72,9.93-5.47a19.88,19.88,0,0,1,3.39-1.05c-.2.85-.15,1.32-.37,1.51-5.12,4.59-7.72,10.81-10.7,16.76a2.25,2.25,0,0,0,.55,2.14c1.18.6,1.75-.31,2.07-1.42a34.18,34.18,0,0,1,9.56-15.6c2.2-2.1,3-2,4.54.56,3.07,5.18,3.91,10.93,3.78,16.75-.15,6.83,2.24,12.86,4.94,18.85,2.94,6.54,6.51,12.82,9.07,19.5A76.19,76.19,0,0,1,336.34,239.73Z" transform="translate(61.04 -58.81)"/></g></svg>