<?xml version="1.0" encoding="UTF-8" standalone="no"?>
<!-- Created with Inkscape (http://www.inkscape.org/) -->

<svg
   width="14.031319mm"
   height="6.9622865mm"
   viewBox="0 0 14.031318 6.9622864"
   version="1.1"
   id="svg1"
   xmlns="http://www.w3.org/2000/svg"
   xmlns:svg="http://www.w3.org/2000/svg">
  <defs
     id="defs1" />
  <g
     id="layer1"
     transform="translate(-120.62539,-119.83781)">
    <g
       id="text2"
       style="font-size:9.51058px;fill:#ff9aff;stroke:#000000;stroke-width:0.792547;paint-order:stroke markers fill"
       aria-label="M+Д"
       transform="translate(-36.93319,6.317688)">
      <path
         id="path1"
         style="font-weight:500;font-family:'Carlo Melow Sans';-inkscape-font-specification:'Carlo Melow Sans Medium';fill:#3a865b;stroke:none"
         d="m 157.84375,113.80469 c -0.0652,0 -0.0817,0.0145 -0.0918,0.0234 -0.0103,0.0101 -0.0203,0.0201 -0.0254,0.0742 3.2e-4,0.0771 -0.16797,1.49076 -0.16797,3.30278 0,0.91899 0.0557,1.83145 0.16602,2.73828 0.005,0.0331 0.0113,0.0457 0.0469,0.0742 0.0228,0.0182 0.0313,0.0215 0.0625,0.0215 0.0491,0 0.0527,-0.006 0.0781,-0.0391 0.0108,-0.0159 0.0254,-0.0447 0.0254,-0.11133 -0.10423,-0.8919 -0.1582,-1.78633 -0.1582,-2.6875 0,-0.83347 0.0189,-1.51029 0.0566,-2.0332 0.0177,-0.24581 0.3494,-0.30961 0.45703,-0.0879 l 0.85547,1.75 0.002,0.002 c 0.0403,0.07 0.0475,0.0723 0.10547,0.0723 0.0579,0 0.0598,5.3e-4 0.0977,-0.0684 l 0.85546,-1.73828 c 0.10819,-0.22229 0.441,-0.1569 0.45704,0.0898 0.0377,0.55002 0.0547,1.21787 0.0547,2.00781 0,0.90372 -0.0549,1.80157 -0.16211,2.69336 0,0.0642 0.0129,0.091 0.0234,0.10742 0.0297,0.0369 0.0356,0.043 0.0801,0.043 0.0297,0 0.0452,-0.005 0.0762,-0.0293 0.001,-6.8e-4 0.003,-0.001 0.004,-0.002 0.017,-0.0126 0.0232,-0.0158 0.0293,-0.0645 0.11029,-0.90684 0.16602,-1.81929 0.16602,-2.73828 0,-1.08689 -0.0539,-2.17267 -0.1582,-3.25977 -3.1e-4,-0.0401 -0.0184,-0.0771 -0.0275,-0.11543 -0.0222,-0.0169 -0.0403,-0.0254 -0.0859,-0.0254 -0.049,0 -0.0513,0.006 -0.0703,0.0293 -0.0198,0.039 -0.0391,0.0782 -0.0586,0.11728 -0.0493,0.0985 -0.12137,0.24273 -0.2168,0.43555 -0.19086,0.38564 -0.47309,0.9592 -0.84765,1.7207 -0.37928,0.78257 -1.31757,-1.99694 -1.53325,-2.23833 -0.0496,-0.0555 -0.0331,-0.0645 -0.0957,-0.0645 z m 6.67773,1.3789 c -0.0448,0 -0.0531,0.004 -0.0801,0.0312 -0.0293,0.0293 -0.0332,0.0394 -0.0332,0.0762 v 1.2832 c -3.8e-4,0.13252 -0.10771,0.23985 -0.24023,0.24023 h -1.28125 c -0.04,0 -0.0485,0.004 -0.0762,0.0312 -0.0276,0.0276 -0.0312,0.0362 -0.0312,0.0762 0,0.04 0.004,0.0485 0.0312,0.0762 0.0276,0.0276 0.0362,0.0312 0.0762,0.0312 h 1.28125 c 0.13252,3.8e-4 0.23985,0.10771 0.24023,0.24023 v 1.2832 c 0,0.0367 0.004,0.0469 0.0332,0.0762 0.0269,0.0269 0.0352,0.0312 0.0801,0.0312 0.04,0 0.0486,-0.004 0.0762,-0.0312 0.0276,-0.0276 0.0312,-0.0362 0.0312,-0.0762 v -1.2832 c 3.8e-4,-0.13252 0.10771,-0.23985 0.24023,-0.24023 h 1.2832 c 0.04,0 0.0485,-0.004 0.0762,-0.0312 0.0276,-0.0276 0.0312,-0.0362 0.0312,-0.0762 0,-0.04 -0.004,-0.0485 -0.0312,-0.0762 -0.0277,-0.0276 -0.0362,-0.0312 -0.0762,-0.0312 h -1.2832 c -0.13252,-3.8e-4 -0.23985,-0.10771 -0.24023,-0.24023 v -1.2832 c 0,-0.04 -0.004,-0.0485 -0.0312,-0.0762 -0.0276,-0.0276 -0.0362,-0.0312 -0.0762,-0.0312 z" />
      <path
         id="path4"
         style="font-weight:500;font-size:9.17222px;font-family:'Carlo Melow Sans';-inkscape-font-specification:'Carlo Melow Sans Medium';fill:#3a865b;stroke:none"
         d="m 169.42383,113.52148 c -0.093,0 -0.0674,-0.0153 -0.0918,0.0567 -0.68948,1.86134 -1.08138,3.81226 -1.36528,5.77158 -0.015,0.11225 -0.1043,0.19997 -0.2168,0.21289 -0.13724,0.0149 -0.28262,0.031 -0.43359,0.0488 -0.0508,0.006 -0.0428,0.007 -0.0488,0.0156 -0.0238,0.0342 -0.0274,0.0524 -0.0274,0.0781 v 0.68945 c 0,0.0356 4.1e-4,0.0414 0.0234,0.0644 0.0231,0.0231 0.0289,0.0234 0.0645,0.0234 0.0357,0 0.0377,0.001 0.0625,-0.0234 0.0248,-0.0248 0.0254,-0.0323 0.0254,-0.0644 V 120 c -8e-5,-0.12707 0.0962,-0.23349 0.22265,-0.24609 0.45917,-0.0483 0.91775,-0.0804 1.37891,-0.10157 0.001,-10e-6 0.003,-10e-6 0.004,0 0.44322,-0.0126 1.15783,0.0244 2.16211,0.11133 0.128,0.0107 0.22647,0.11766 0.22657,0.2461 v 0.38476 c 0,0.0356 4e-4,0.0414 0.0234,0.0644 0.0231,0.0231 0.0288,0.0234 0.0645,0.0234 0.0404,0 0.0461,-0.001 0.0684,-0.0234 0.0231,-0.0231 0.0234,-0.0288 0.0234,-0.0644 v -0.68945 c 0,-0.0335 -0.004,-0.0493 -0.0234,-0.0742 -0.0103,-0.0213 -0.0366,-0.0131 -0.0548,-0.0196 -0.0341,3.4e-4 -0.0651,-0.01 -0.4122,-0.041 -0.11478,-0.0104 -0.20715,-0.0987 -0.22266,-0.21289 -0.29363,-2.16524 -1.36328,-5.8343 -1.36328,-5.8343 0,0 -0.0384,-0.002 -0.0899,-0.002 z m 0,0.875 c 0.10837,-1.3e-4 0.20418,0.0703 0.23633,0.17383 0.27158,0.87212 0.49693,1.77945 0.67773,2.72266 0.15868,0.82621 0.27121,1.47063 0.33789,1.9375 0.0223,0.1565 -0.10606,0.29339 -0.26367,0.28125 -0.50074,-0.0385 -0.88285,-0.0547 -1.14063,-0.0547 -0.21805,0 -0.4982,0.0106 -0.83984,0.0371 -0.15853,0.0124 -0.28734,-0.12596 -0.26367,-0.2832 0.0696,-0.46601 0.18314,-1.10372 0.3418,-1.91797 0.18081,-0.94625 0.40606,-1.85334 0.67773,-2.72266 0.0322,-0.10349 0.12796,-0.17396 0.23633,-0.17383 z" />
    </g>
  </g>
</svg>
