<?xml version="1.0" encoding="UTF-8" standalone="no"?>
<!-- Created with Inkscape (http://www.inkscape.org/) -->

<svg
   version="1.1"
   id="svg1"
   width="100"
   height="167.04778"
   viewBox="0 0 100 167.04778"
   xmlns="http://www.w3.org/2000/svg"
   xmlns:svg="http://www.w3.org/2000/svg">
  <defs
     id="defs1" />
  <g
     id="g1"
     transform="translate(-13.24938,32.855014)">
    <g
       id="g14"
       transform="matrix(2.9088361,-3.2389591,3.2389591,2.9088361,-291.28172,42.601296)"
       style="fill:#3a865b;fill-opacity:1">
      <path
         style="fill:#3a865b;fill-opacity:1"
         d="m 71.091761,58.243902 c -1.85792,-0.355837 -9.43184,-3.548449 -13.72638,-5.786038 -8.993984,-4.686148 -6.293754,-7.192033 2.90514,-2.696045 1.87141,0.914658 4.69856,2.220187 6.28256,2.901176 5.55294,2.3873 6.08813,2.652265 7.12,3.524984 1.18743,1.004282 1.31046,1.615438 0.42104,2.091443 -0.701,0.375162 -0.86842,0.373181 -3.00236,-0.03552 z"
         id="path6" />
      <path
         style="fill:#3a865b;fill-opacity:1"
         d="m 53.448162,64.958993 c -2.938802,-1.904058 -7.022649,-6.798357 -7.022649,-8.416316 0,-3.104554 6.048552,0.716736 9.584668,6.055302 2.02633,3.059199 0.57702,4.394804 -2.562019,2.361014 z"
         id="path4" />
      <path
         style="fill:#3a865b;fill-opacity:1"
         d="m 42.536946,78.850687 c -1.300593,-1.359244 -4.865421,-10.700745 -5.6237,-14.736708 -0.915666,-4.873658 1.922965,-5.127657 3.813136,-0.341196 4.730218,11.978278 5.574817,19.011877 1.810564,15.077904 z"
         id="path1" />
    </g>
  </g>
</svg>
